<svg xmlns="http://www.w3.org/2000/svg" xmlns:xlink="http://www.w3.org/1999/xlink" width="500" zoomAndPan="magnify" viewBox="0 0 375 374.999991" height="500" preserveAspectRatio="xMidYMid meet" version="1.0"><defs><clipPath id="007eb047f5"><path d="M 37.5 37.5 L 337.5 37.5 L 337.5 337.5 L 37.5 337.5 Z M 37.5 37.5 " clip-rule="nonzero"/></clipPath><clipPath id="54fd39c33c"><path d="M 77.527344 124 L 188 124 L 188 152 L 77.527344 152 Z M 77.527344 124 " clip-rule="nonzero"/></clipPath><clipPath id="daa9987bc8"><path d="M 174 124 L 201 124 L 201 293.378906 L 174 293.378906 Z M 174 124 " clip-rule="nonzero"/></clipPath><clipPath id="6386542f7c"><path d="M 166 117.128906 L 208.636719 117.128906 L 208.636719 159 L 166 159 Z M 166 117.128906 " clip-rule="nonzero"/></clipPath><clipPath id="6db0a57304"><path d="M 187 124 L 297.464844 124 L 297.464844 152 L 187 152 Z M 187 124 " clip-rule="nonzero"/></clipPath><clipPath id="ce7295992c"><path d="M 174 124 L 201 124 L 201 293.378906 L 174 293.378906 Z M 174 124 " clip-rule="nonzero"/></clipPath><clipPath id="7a24462cd9"><path d="M 166.214844 117.128906 L 208 117.128906 L 208 159 L 166.214844 159 Z M 166.214844 117.128906 " clip-rule="nonzero"/></clipPath><clipPath id="cf67052480"><path d="M 161.839844 112.070312 L 212.839844 112.070312 L 212.839844 163.070312 L 161.839844 163.070312 Z M 161.839844 112.070312 " clip-rule="nonzero"/></clipPath></defs><g clip-path="url(#007eb047f5)"><path fill="#ff6500" d="M 187.5 37.5 C 104.738281 37.5 37.5 104.738281 37.5 187.5 C 37.5 270.261719 104.738281 337.5 187.5 337.5 C 270.261719 337.5 337.5 270.261719 337.5 187.5 C 337.5 104.738281 270.261719 37.5 187.5 37.5 Z M 187.5 44.023438 C 266.824219 44.023438 330.976562 108.175781 330.976562 187.5 C 330.976562 266.824219 266.824219 330.976562 187.5 330.976562 C 108.175781 330.976562 44.023438 266.824219 44.023438 187.5 C 44.023438 108.175781 108.175781 44.023438 187.5 44.023438 Z M 187.5 44.023438 " fill-opacity="1" fill-rule="nonzero"/></g><g clip-path="url(#54fd39c33c)"><path fill="#ff6500" d="M 187.882812 125.878906 L 187.882812 150.167969 C 187.882812 150.691406 187.59375 151.097656 187.253906 151.066406 L 78.144531 138.917969 C 77.414062 138.835938 77.414062 137.210938 78.144531 137.132812 L 187.253906 124.980469 C 187.59375 124.949219 187.882812 125.355469 187.882812 125.878906 Z M 187.882812 125.878906 " fill-opacity="1" fill-rule="nonzero"/></g><g clip-path="url(#daa9987bc8)"><path fill="#231f20" d="M 175.742188 124.980469 L 200.050781 124.980469 C 200.175781 124.980469 200.296875 125.007812 200.410156 125.054688 C 200.523438 125.105469 200.625 125.175781 200.707031 125.269531 C 200.792969 125.359375 200.855469 125.464844 200.894531 125.582031 C 200.9375 125.699219 200.949219 125.820312 200.941406 125.945312 L 188.796875 292.195312 C 188.777344 292.425781 188.683594 292.621094 188.511719 292.777344 C 188.339844 292.933594 188.136719 293.011719 187.90625 293.011719 C 187.671875 293.011719 187.472656 292.933594 187.300781 292.777344 C 187.128906 292.621094 187.03125 292.425781 187.011719 292.195312 L 174.863281 125.945312 C 174.855469 125.824219 174.871094 125.703125 174.910156 125.585938 C 174.949219 125.46875 175.011719 125.367188 175.09375 125.273438 C 175.175781 125.183594 175.273438 125.113281 175.386719 125.0625 C 175.5 125.011719 175.617188 124.984375 175.742188 124.980469 Z M 175.742188 124.980469 " fill-opacity="1" fill-rule="nonzero"/></g><g clip-path="url(#6386542f7c)"><path fill="#414042" d="M 166.988281 138.019531 C 166.988281 138.703125 167.023438 139.386719 167.089844 140.070312 C 167.15625 140.75 167.257812 141.425781 167.390625 142.097656 C 167.523438 142.769531 167.691406 143.429688 167.890625 144.085938 C 168.089844 144.738281 168.320312 145.382812 168.582031 146.015625 C 168.84375 146.648438 169.132812 147.265625 169.457031 147.871094 C 169.78125 148.472656 170.128906 149.058594 170.511719 149.628906 C 170.890625 150.195312 171.296875 150.746094 171.730469 151.273438 C 172.167969 151.804688 172.625 152.308594 173.109375 152.792969 C 173.59375 153.277344 174.097656 153.738281 174.628906 154.171875 C 175.15625 154.605469 175.707031 155.011719 176.273438 155.390625 C 176.84375 155.773438 177.429688 156.125 178.035156 156.445312 C 178.636719 156.769531 179.253906 157.0625 179.886719 157.324219 C 180.519531 157.585938 181.164062 157.816406 181.816406 158.011719 C 182.472656 158.210938 183.136719 158.378906 183.804688 158.511719 C 184.476562 158.644531 185.152344 158.746094 185.835938 158.8125 C 186.515625 158.878906 187.199219 158.914062 187.882812 158.914062 C 188.566406 158.914062 189.25 158.878906 189.929688 158.8125 C 190.609375 158.746094 191.285156 158.644531 191.957031 158.511719 C 192.628906 158.378906 193.292969 158.210938 193.945312 158.011719 C 194.601562 157.816406 195.246094 157.585938 195.878906 157.324219 C 196.507812 157.0625 197.128906 156.769531 197.730469 156.445312 C 198.335938 156.125 198.921875 155.773438 199.488281 155.390625 C 200.058594 155.011719 200.605469 154.605469 201.136719 154.171875 C 201.664062 153.738281 202.171875 153.277344 202.65625 152.792969 C 203.140625 152.308594 203.597656 151.804688 204.03125 151.273438 C 204.464844 150.746094 204.875 150.195312 205.253906 149.628906 C 205.632812 149.058594 205.984375 148.472656 206.308594 147.871094 C 206.628906 147.265625 206.921875 146.648438 207.183594 146.015625 C 207.445312 145.382812 207.675781 144.738281 207.875 144.085938 C 208.074219 143.429688 208.238281 142.769531 208.375 142.097656 C 208.507812 141.425781 208.605469 140.75 208.675781 140.070312 C 208.742188 139.386719 208.773438 138.703125 208.773438 138.019531 C 208.773438 137.335938 208.742188 136.652344 208.675781 135.972656 C 208.605469 135.292969 208.507812 134.617188 208.375 133.945312 C 208.238281 133.273438 208.074219 132.609375 207.875 131.957031 C 207.675781 131.300781 207.445312 130.65625 207.183594 130.027344 C 206.921875 129.394531 206.628906 128.777344 206.308594 128.171875 C 205.984375 127.570312 205.632812 126.984375 205.253906 126.414062 C 204.875 125.84375 204.464844 125.296875 204.03125 124.765625 C 203.597656 124.238281 203.140625 123.730469 202.65625 123.246094 C 202.171875 122.765625 201.664062 122.304688 201.136719 121.871094 C 200.605469 121.4375 200.058594 121.03125 199.488281 120.648438 C 198.921875 120.269531 198.335938 119.917969 197.730469 119.59375 C 197.128906 119.273438 196.507812 118.980469 195.878906 118.71875 C 195.246094 118.457031 194.601562 118.226562 193.945312 118.027344 C 193.292969 117.828125 192.628906 117.664062 191.957031 117.53125 C 191.285156 117.394531 190.609375 117.296875 189.929688 117.230469 C 189.25 117.160156 188.566406 117.128906 187.882812 117.128906 C 187.199219 117.128906 186.515625 117.160156 185.835938 117.230469 C 185.152344 117.296875 184.476562 117.394531 183.804688 117.53125 C 183.136719 117.664062 182.472656 117.828125 181.816406 118.027344 C 181.164062 118.226562 180.519531 118.457031 179.886719 118.71875 C 179.253906 118.980469 178.636719 119.273438 178.035156 119.59375 C 177.429688 119.917969 176.84375 120.269531 176.273438 120.648438 C 175.707031 121.03125 175.15625 121.4375 174.628906 121.871094 C 174.097656 122.304688 173.59375 122.765625 173.109375 123.246094 C 172.625 123.730469 172.167969 124.238281 171.730469 124.765625 C 171.296875 125.296875 170.890625 125.84375 170.511719 126.414062 C 170.128906 126.984375 169.78125 127.570312 169.457031 128.171875 C 169.132812 128.777344 168.84375 129.394531 168.582031 130.027344 C 168.320312 130.65625 168.089844 131.300781 167.890625 131.957031 C 167.691406 132.609375 167.523438 133.273438 167.390625 133.945312 C 167.257812 134.617188 167.15625 135.292969 167.089844 135.972656 C 167.023438 136.652344 166.988281 137.335938 166.988281 138.019531 Z M 166.988281 138.019531 " fill-opacity="1" fill-rule="nonzero"/></g><g clip-path="url(#6db0a57304)"><path fill="#ff6500" d="M 187.109375 125.878906 L 187.109375 150.167969 C 187.109375 150.691406 187.394531 151.097656 187.738281 151.066406 L 296.847656 138.917969 C 297.578125 138.835938 297.578125 137.210938 296.847656 137.132812 L 187.738281 124.980469 C 187.394531 124.949219 187.109375 125.355469 187.109375 125.878906 Z M 187.109375 125.878906 " fill-opacity="1" fill-rule="nonzero"/></g><g clip-path="url(#ce7295992c)"><path fill="#ff6500" d="M 199.25 124.980469 L 174.9375 124.980469 C 174.8125 124.980469 174.695312 125.007812 174.582031 125.054688 C 174.464844 125.105469 174.367188 125.175781 174.28125 125.269531 C 174.199219 125.359375 174.136719 125.464844 174.09375 125.582031 C 174.054688 125.699219 174.039062 125.820312 174.050781 125.945312 L 186.191406 292.195312 C 186.210938 292.425781 186.308594 292.621094 186.476562 292.777344 C 186.648438 292.933594 186.851562 293.011719 187.085938 293.011719 C 187.316406 293.011719 187.519531 292.933594 187.691406 292.777344 C 187.863281 292.621094 187.957031 292.425781 187.976562 292.195312 L 200.125 125.945312 C 200.136719 125.824219 200.121094 125.703125 200.078125 125.585938 C 200.039062 125.46875 199.976562 125.367188 199.894531 125.273438 C 199.8125 125.183594 199.714844 125.113281 199.601562 125.0625 C 199.492188 125.011719 199.371094 124.984375 199.25 124.980469 Z M 199.25 124.980469 " fill-opacity="1" fill-rule="nonzero"/></g><g clip-path="url(#7a24462cd9)"><path fill="#5e17eb" d="M 208 138.019531 C 208 138.703125 207.964844 139.386719 207.898438 140.070312 C 207.832031 140.75 207.730469 141.425781 207.597656 142.097656 C 207.464844 142.769531 207.300781 143.429688 207.101562 144.085938 C 206.902344 144.738281 206.671875 145.382812 206.410156 146.015625 C 206.148438 146.648438 205.855469 147.265625 205.53125 147.871094 C 205.210938 148.472656 204.859375 149.058594 204.480469 149.628906 C 204.097656 150.195312 203.691406 150.746094 203.257812 151.273438 C 202.824219 151.804688 202.363281 152.308594 201.878906 152.792969 C 201.398438 153.277344 200.890625 153.738281 200.363281 154.171875 C 199.832031 154.605469 199.285156 155.011719 198.714844 155.390625 C 198.144531 155.773438 197.558594 156.125 196.957031 156.445312 C 196.351562 156.769531 195.734375 157.0625 195.101562 157.324219 C 194.46875 157.585938 193.828125 157.816406 193.171875 158.011719 C 192.519531 158.210938 191.855469 158.378906 191.183594 158.511719 C 190.511719 158.644531 189.835938 158.746094 189.15625 158.8125 C 188.472656 158.878906 187.792969 158.914062 187.109375 158.914062 C 186.421875 158.914062 185.742188 158.878906 185.058594 158.8125 C 184.378906 158.746094 183.703125 158.644531 183.03125 158.511719 C 182.359375 158.378906 181.699219 158.210938 181.042969 158.011719 C 180.386719 157.816406 179.746094 157.585938 179.113281 157.324219 C 178.480469 157.0625 177.863281 156.769531 177.257812 156.445312 C 176.65625 156.125 176.070312 155.773438 175.5 155.390625 C 174.933594 155.011719 174.382812 154.605469 173.855469 154.171875 C 173.324219 153.738281 172.820312 153.277344 172.335938 152.792969 C 171.851562 152.308594 171.390625 151.804688 170.957031 151.273438 C 170.523438 150.746094 170.117188 150.195312 169.738281 149.628906 C 169.355469 149.058594 169.003906 148.472656 168.683594 147.871094 C 168.359375 147.265625 168.066406 146.648438 167.804688 146.015625 C 167.542969 145.382812 167.3125 144.738281 167.113281 144.085938 C 166.917969 143.429688 166.75 142.769531 166.617188 142.097656 C 166.484375 141.425781 166.382812 140.75 166.316406 140.070312 C 166.25 139.386719 166.214844 138.703125 166.214844 138.019531 C 166.214844 137.335938 166.25 136.652344 166.316406 135.972656 C 166.382812 135.292969 166.484375 134.617188 166.617188 133.945312 C 166.75 133.273438 166.917969 132.609375 167.113281 131.957031 C 167.3125 131.300781 167.542969 130.65625 167.804688 130.027344 C 168.066406 129.394531 168.359375 128.777344 168.683594 128.171875 C 169.003906 127.570312 169.355469 126.984375 169.738281 126.414062 C 170.117188 125.84375 170.523438 125.296875 170.957031 124.765625 C 171.390625 124.238281 171.851562 123.730469 172.335938 123.246094 C 172.820312 122.765625 173.324219 122.304688 173.855469 121.871094 C 174.382812 121.4375 174.933594 121.03125 175.5 120.648438 C 176.070312 120.269531 176.65625 119.917969 177.257812 119.59375 C 177.863281 119.273438 178.480469 118.980469 179.113281 118.71875 C 179.746094 118.457031 180.386719 118.226562 181.042969 118.027344 C 181.699219 117.828125 182.359375 117.664062 183.03125 117.53125 C 183.703125 117.394531 184.378906 117.296875 185.058594 117.230469 C 185.742188 117.160156 186.421875 117.128906 187.109375 117.128906 C 187.792969 117.128906 188.472656 117.160156 189.15625 117.230469 C 189.835938 117.296875 190.511719 117.394531 191.183594 117.53125 C 191.855469 117.664062 192.519531 117.828125 193.171875 118.027344 C 193.828125 118.226562 194.46875 118.457031 195.101562 118.71875 C 195.734375 118.980469 196.351562 119.273438 196.957031 119.59375 C 197.558594 119.917969 198.144531 120.269531 198.714844 120.648438 C 199.285156 121.03125 199.832031 121.4375 200.363281 121.871094 C 200.890625 122.304688 201.398438 122.765625 201.878906 123.246094 C 202.363281 123.730469 202.824219 124.238281 203.257812 124.765625 C 203.691406 125.296875 204.097656 125.84375 204.480469 126.414062 C 204.859375 126.984375 205.210938 127.570312 205.53125 128.171875 C 205.855469 128.777344 206.148438 129.394531 206.410156 130.027344 C 206.671875 130.65625 206.902344 131.300781 207.101562 131.957031 C 207.300781 132.609375 207.464844 133.273438 207.597656 133.945312 C 207.730469 134.617188 207.832031 135.292969 207.898438 135.972656 C 207.964844 136.652344 208 137.335938 208 138.019531 Z M 208 138.019531 " fill-opacity="1" fill-rule="nonzero"/></g><g clip-path="url(#cf67052480)"><path fill="#ff6500" d="M 187.410156 112.070312 C 173.273438 112.070312 161.839844 123.515625 161.839844 137.652344 C 161.839844 151.785156 173.273438 163.234375 187.410156 163.234375 C 201.542969 163.234375 213.003906 151.785156 213.003906 137.652344 C 213.003906 123.515625 201.542969 112.070312 187.410156 112.070312 Z M 187.421875 158.117188 C 176.113281 158.117188 166.957031 148.957031 166.957031 137.652344 C 166.957031 126.34375 176.113281 117.1875 187.421875 117.1875 C 198.730469 117.1875 207.886719 126.34375 207.886719 137.652344 C 207.886719 148.957031 198.730469 158.117188 187.421875 158.117188 Z M 187.421875 158.117188 " fill-opacity="1" fill-rule="nonzero"/></g><path fill="#ff6500" d="M 188.699219 124.859375 L 184.863281 124.859375 L 184.863281 140.210938 L 198.28125 148.269531 L 200.210938 145.121094 L 188.699219 138.289062 Z M 188.699219 124.859375 " fill-opacity="1" fill-rule="nonzero"/></svg>