<svg xmlns="http://www.w3.org/2000/svg" xmlns:xlink="http://www.w3.org/1999/xlink" width="500" zoomAndPan="magnify" viewBox="0 0 375 374.999991" height="500" preserveAspectRatio="xMidYMid meet" version="1.0"><defs><clipPath id="a763d41c03"><path d="M 37.5 81 L 189 81 L 189 118 L 37.5 118 Z M 37.5 81 " clip-rule="nonzero"/></clipPath><clipPath id="c95991aca0"><path d="M 170 81 L 206 81 L 206 310.398438 L 170 310.398438 Z M 170 81 " clip-rule="nonzero"/></clipPath><clipPath id="8b4f7f0480"><path d="M 159 71.148438 L 216.492188 71.148438 L 216.492188 129 L 159 129 Z M 159 71.148438 " clip-rule="nonzero"/></clipPath><clipPath id="97a4750afb"><path d="M 186 81 L 337.753906 81 L 337.753906 118 L 186 118 Z M 186 81 " clip-rule="nonzero"/></clipPath><clipPath id="6f18f654e2"><path d="M 169 81 L 205 81 L 205 310.398438 L 169 310.398438 Z M 169 81 " clip-rule="nonzero"/></clipPath><clipPath id="42c8909b8d"><path d="M 158.503906 71.148438 L 216 71.148438 L 216 129 L 158.503906 129 Z M 158.503906 71.148438 " clip-rule="nonzero"/></clipPath><clipPath id="f5cdfabe36"><path d="M 152.542969 64.257812 L 222.292969 64.257812 L 222.292969 134 L 152.542969 134 Z M 152.542969 64.257812 " clip-rule="nonzero"/></clipPath></defs><g clip-path="url(#a763d41c03)"><path fill="#ff6500" d="M 188.027344 83.070312 L 188.027344 116.160156 C 188.027344 116.871094 187.636719 117.425781 187.171875 117.382812 L 38.53125 100.832031 C 37.539062 100.722656 37.539062 98.507812 38.53125 98.398438 L 187.171875 81.847656 C 187.636719 81.800781 188.027344 82.359375 188.027344 83.070312 Z M 188.027344 83.070312 " fill-opacity="1" fill-rule="nonzero"/></g><g clip-path="url(#c95991aca0)"><path fill="#231f20" d="M 171.488281 81.847656 L 204.605469 81.847656 C 204.773438 81.847656 204.9375 81.882812 205.09375 81.949219 C 205.25 82.015625 205.382812 82.113281 205.5 82.238281 C 205.613281 82.363281 205.699219 82.503906 205.753906 82.664062 C 205.8125 82.828125 205.832031 82.992188 205.816406 83.160156 L 189.277344 309.636719 C 189.25 309.953125 189.117188 310.214844 188.886719 310.429688 C 188.652344 310.644531 188.375 310.753906 188.058594 310.753906 C 187.742188 310.753906 187.46875 310.644531 187.234375 310.429688 C 187 310.214844 186.871094 309.953125 186.84375 309.636719 L 170.292969 83.160156 C 170.28125 82.992188 170.300781 82.832031 170.355469 82.671875 C 170.410156 82.511719 170.496094 82.371094 170.609375 82.246094 C 170.722656 82.125 170.855469 82.027344 171.007812 81.957031 C 171.160156 81.886719 171.320312 81.851562 171.488281 81.847656 Z M 171.488281 81.847656 " fill-opacity="1" fill-rule="nonzero"/></g><g clip-path="url(#8b4f7f0480)"><path fill="#414042" d="M 159.566406 99.609375 C 159.566406 100.542969 159.613281 101.472656 159.703125 102.398438 C 159.796875 103.328125 159.933594 104.25 160.113281 105.164062 C 160.296875 106.078125 160.523438 106.980469 160.792969 107.871094 C 161.0625 108.765625 161.375 109.640625 161.734375 110.5 C 162.089844 111.363281 162.488281 112.203125 162.929688 113.027344 C 163.367188 113.847656 163.847656 114.648438 164.363281 115.421875 C 164.882812 116.195312 165.4375 116.945312 166.027344 117.664062 C 166.617188 118.386719 167.242188 119.074219 167.902344 119.734375 C 168.5625 120.394531 169.253906 121.019531 169.972656 121.609375 C 170.691406 122.203125 171.441406 122.757812 172.214844 123.273438 C 172.992188 123.792969 173.789062 124.269531 174.613281 124.710938 C 175.433594 125.148438 176.277344 125.546875 177.136719 125.90625 C 177.996094 126.261719 178.875 126.574219 179.765625 126.84375 C 180.660156 127.117188 181.5625 127.34375 182.476562 127.523438 C 183.390625 127.707031 184.3125 127.84375 185.238281 127.933594 C 186.167969 128.027344 187.097656 128.070312 188.027344 128.070312 C 188.960938 128.070312 189.890625 128.027344 190.816406 127.933594 C 191.746094 127.84375 192.667969 127.707031 193.582031 127.523438 C 194.496094 127.34375 195.398438 127.117188 196.289062 126.84375 C 197.183594 126.574219 198.058594 126.261719 198.917969 125.90625 C 199.78125 125.546875 200.621094 125.148438 201.445312 124.710938 C 202.265625 124.269531 203.066406 123.792969 203.839844 123.273438 C 204.617188 122.757812 205.363281 122.203125 206.082031 121.609375 C 206.804688 121.019531 207.492188 120.394531 208.152344 119.734375 C 208.8125 119.074219 209.4375 118.386719 210.027344 117.664062 C 210.621094 116.945312 211.175781 116.195312 211.691406 115.421875 C 212.210938 114.648438 212.6875 113.847656 213.128906 113.027344 C 213.566406 112.203125 213.964844 111.363281 214.324219 110.5 C 214.679688 109.640625 214.992188 108.765625 215.261719 107.871094 C 215.535156 106.980469 215.761719 106.078125 215.941406 105.164062 C 216.125 104.25 216.261719 103.328125 216.351562 102.398438 C 216.445312 101.472656 216.488281 100.542969 216.488281 99.609375 C 216.488281 98.679688 216.445312 97.75 216.351562 96.820312 C 216.261719 95.894531 216.125 94.972656 215.941406 94.058594 C 215.761719 93.144531 215.535156 92.242188 215.261719 91.347656 C 214.992188 90.457031 214.679688 89.578125 214.324219 88.71875 C 213.964844 87.855469 213.566406 87.015625 213.128906 86.195312 C 212.6875 85.371094 212.210938 84.574219 211.691406 83.796875 C 211.175781 83.023438 210.621094 82.273438 210.027344 81.554688 C 209.4375 80.835938 208.8125 80.144531 208.152344 79.484375 C 207.492188 78.824219 206.804688 78.199219 206.082031 77.609375 C 205.363281 77.019531 204.617188 76.464844 203.839844 75.945312 C 203.066406 75.429688 202.265625 74.949219 201.445312 74.511719 C 200.621094 74.070312 199.78125 73.671875 198.917969 73.316406 C 198.058594 72.957031 197.183594 72.644531 196.289062 72.375 C 195.398438 72.105469 194.496094 71.878906 193.582031 71.695312 C 192.667969 71.515625 191.746094 71.378906 190.816406 71.285156 C 189.890625 71.195312 188.960938 71.148438 188.027344 71.148438 C 187.097656 71.148438 186.167969 71.195312 185.238281 71.285156 C 184.3125 71.378906 183.390625 71.515625 182.476562 71.695312 C 181.5625 71.878906 180.660156 72.105469 179.765625 72.375 C 178.875 72.644531 177.996094 72.957031 177.136719 73.316406 C 176.277344 73.671875 175.433594 74.070312 174.613281 74.511719 C 173.789062 74.949219 172.992188 75.429688 172.214844 75.945312 C 171.441406 76.464844 170.691406 77.019531 169.972656 77.609375 C 169.253906 78.199219 168.5625 78.824219 167.902344 79.484375 C 167.242188 80.144531 166.617188 80.835938 166.027344 81.554688 C 165.4375 82.273438 164.882812 83.023438 164.363281 83.796875 C 163.847656 84.574219 163.367188 85.371094 162.929688 86.195312 C 162.488281 87.015625 162.089844 87.855469 161.734375 88.71875 C 161.375 89.578125 161.0625 90.457031 160.792969 91.347656 C 160.523438 92.242188 160.296875 93.144531 160.113281 94.058594 C 159.933594 94.972656 159.796875 95.894531 159.703125 96.820312 C 159.613281 97.75 159.566406 98.679688 159.566406 99.609375 Z M 159.566406 99.609375 " fill-opacity="1" fill-rule="nonzero"/></g><g clip-path="url(#97a4750afb)"><path fill="#ff6500" d="M 186.96875 83.070312 L 186.96875 116.160156 C 186.96875 116.871094 187.359375 117.425781 187.824219 117.382812 L 336.464844 100.832031 C 337.457031 100.722656 337.457031 98.507812 336.464844 98.398438 L 187.824219 81.847656 C 187.359375 81.800781 186.96875 82.359375 186.96875 83.070312 Z M 186.96875 83.070312 " fill-opacity="1" fill-rule="nonzero"/></g><g clip-path="url(#6f18f654e2)"><path fill="#ff6500" d="M 203.507812 81.847656 L 170.390625 81.847656 C 170.222656 81.847656 170.058594 81.882812 169.902344 81.949219 C 169.746094 82.015625 169.613281 82.113281 169.496094 82.238281 C 169.382812 82.363281 169.296875 82.503906 169.242188 82.664062 C 169.183594 82.828125 169.164062 82.992188 169.179688 83.160156 L 185.71875 309.636719 C 185.746094 309.953125 185.878906 310.214844 186.109375 310.429688 C 186.34375 310.644531 186.621094 310.753906 186.9375 310.753906 C 187.253906 310.753906 187.527344 310.644531 187.761719 310.429688 C 187.996094 310.214844 188.125 309.953125 188.152344 309.636719 L 204.703125 83.160156 C 204.714844 82.992188 204.695312 82.832031 204.640625 82.671875 C 204.585938 82.511719 204.5 82.371094 204.386719 82.246094 C 204.273438 82.125 204.140625 82.027344 203.988281 81.957031 C 203.835938 81.886719 203.675781 81.851562 203.507812 81.847656 Z M 203.507812 81.847656 " fill-opacity="1" fill-rule="nonzero"/></g><g clip-path="url(#42c8909b8d)"><path fill="#5e17eb" d="M 215.429688 99.609375 C 215.429688 100.542969 215.382812 101.472656 215.292969 102.398438 C 215.199219 103.328125 215.0625 104.25 214.882812 105.164062 C 214.699219 106.078125 214.472656 106.980469 214.203125 107.871094 C 213.933594 108.765625 213.621094 109.640625 213.261719 110.5 C 212.90625 111.363281 212.507812 112.203125 212.066406 113.027344 C 211.628906 113.847656 211.148438 114.648438 210.632812 115.421875 C 210.113281 116.195312 209.558594 116.945312 208.96875 117.664062 C 208.378906 118.386719 207.753906 119.074219 207.09375 119.734375 C 206.433594 120.394531 205.742188 121.019531 205.023438 121.609375 C 204.304688 122.203125 203.554688 122.757812 202.78125 123.273438 C 202.003906 123.792969 201.207031 124.269531 200.382812 124.710938 C 199.5625 125.148438 198.71875 125.546875 197.859375 125.90625 C 197 126.261719 196.121094 126.574219 195.230469 126.84375 C 194.335938 127.117188 193.433594 127.34375 192.519531 127.523438 C 191.605469 127.707031 190.683594 127.84375 189.757812 127.933594 C 188.828125 128.027344 187.898438 128.070312 186.96875 128.070312 C 186.035156 128.070312 185.105469 128.027344 184.179688 127.933594 C 183.25 127.84375 182.328125 127.707031 181.414062 127.523438 C 180.5 127.34375 179.597656 127.117188 178.707031 126.84375 C 177.8125 126.574219 176.9375 126.261719 176.078125 125.90625 C 175.214844 125.546875 174.375 125.148438 173.550781 124.710938 C 172.730469 124.269531 171.929688 123.792969 171.15625 123.273438 C 170.378906 122.757812 169.632812 122.203125 168.914062 121.609375 C 168.191406 121.019531 167.503906 120.394531 166.84375 119.734375 C 166.183594 119.074219 165.558594 118.386719 164.96875 117.664062 C 164.375 116.945312 163.820312 116.195312 163.304688 115.421875 C 162.785156 114.648438 162.308594 113.847656 161.867188 113.027344 C 161.429688 112.203125 161.03125 111.363281 160.671875 110.5 C 160.316406 109.640625 160.003906 108.765625 159.734375 107.871094 C 159.460938 106.980469 159.234375 106.078125 159.054688 105.164062 C 158.871094 104.25 158.734375 103.328125 158.644531 102.398438 C 158.550781 101.472656 158.507812 100.542969 158.507812 99.609375 C 158.507812 98.679688 158.550781 97.75 158.644531 96.820312 C 158.734375 95.894531 158.871094 94.972656 159.054688 94.058594 C 159.234375 93.144531 159.460938 92.242188 159.734375 91.347656 C 160.003906 90.457031 160.316406 89.578125 160.671875 88.71875 C 161.03125 87.855469 161.429688 87.015625 161.867188 86.195312 C 162.308594 85.371094 162.785156 84.574219 163.304688 83.796875 C 163.820312 83.023438 164.375 82.273438 164.96875 81.554688 C 165.558594 80.835938 166.183594 80.144531 166.84375 79.484375 C 167.503906 78.824219 168.191406 78.199219 168.914062 77.609375 C 169.632812 77.019531 170.378906 76.464844 171.15625 75.945312 C 171.929688 75.429688 172.730469 74.949219 173.550781 74.511719 C 174.375 74.070312 175.214844 73.671875 176.078125 73.316406 C 176.9375 72.957031 177.8125 72.644531 178.707031 72.375 C 179.597656 72.105469 180.5 71.878906 181.414062 71.695312 C 182.328125 71.515625 183.25 71.378906 184.179688 71.285156 C 185.105469 71.195312 186.035156 71.148438 186.96875 71.148438 C 187.898438 71.148438 188.828125 71.195312 189.757812 71.285156 C 190.683594 71.378906 191.605469 71.515625 192.519531 71.695312 C 193.433594 71.878906 194.335938 72.105469 195.230469 72.375 C 196.121094 72.644531 197 72.957031 197.859375 73.316406 C 198.71875 73.671875 199.5625 74.070312 200.382812 74.511719 C 201.207031 74.949219 202.003906 75.429688 202.78125 75.945312 C 203.554688 76.464844 204.304688 77.019531 205.023438 77.609375 C 205.742188 78.199219 206.433594 78.824219 207.09375 79.484375 C 207.753906 80.144531 208.378906 80.835938 208.96875 81.554688 C 209.558594 82.273438 210.113281 83.023438 210.632812 83.796875 C 211.148438 84.574219 211.628906 85.371094 212.066406 86.195312 C 212.507812 87.015625 212.90625 87.855469 213.261719 88.71875 C 213.621094 89.578125 213.933594 90.457031 214.203125 91.347656 C 214.472656 92.242188 214.699219 93.144531 214.882812 94.058594 C 215.0625 94.972656 215.199219 95.894531 215.292969 96.820312 C 215.382812 97.75 215.429688 98.679688 215.429688 99.609375 Z M 215.429688 99.609375 " fill-opacity="1" fill-rule="nonzero"/></g><g clip-path="url(#f5cdfabe36)"><path fill="#ff6500" d="M 187.375 64.257812 C 168.121094 64.257812 152.542969 79.851562 152.542969 99.101562 C 152.542969 118.355469 168.121094 133.949219 187.375 133.949219 C 206.625 133.949219 222.234375 118.355469 222.234375 99.101562 C 222.234375 79.851562 206.625 64.257812 187.375 64.257812 Z M 187.390625 126.980469 C 171.988281 126.980469 159.515625 114.503906 159.515625 99.101562 C 159.515625 83.703125 171.988281 71.226562 187.390625 71.226562 C 202.792969 71.226562 215.265625 83.703125 215.265625 99.101562 C 215.265625 114.503906 202.792969 126.980469 187.390625 126.980469 Z M 187.390625 126.980469 " fill-opacity="1" fill-rule="nonzero"/></g><path fill="#ff6500" d="M 189.132812 81.679688 L 183.90625 81.679688 L 183.90625 102.589844 L 202.183594 113.5625 L 204.8125 109.277344 L 189.132812 99.972656 Z M 189.132812 81.679688 " fill-opacity="1" fill-rule="nonzero"/></svg>